<svg width="1300" height="419" viewBox="0 0 1300 419" fill="none" xmlns="http://www.w3.org/2000/svg">
<mask id="mask0_14_913" style="mask-type:alpha" maskUnits="userSpaceOnUse" x="0" y="0" width="1300" height="419">
<rect width="1300" height="419" rx="5" fill="#E92E5B"/>
</mask>
<g mask="url(#mask0_14_913)">
<rect width="1300" height="419" rx="5" fill="#E92E5B"/>
<circle cx="514" r="265" fill="#F1406B"/>
<circle cy="319" r="233" fill="#ED3864"/>
<path d="M1283 419C1285.76 419 1288 416.761 1287.95 414C1287.33 380.903 1280.51 348.2 1267.83 317.589C1254.51 285.438 1234.99 256.224 1210.38 231.617C1185.78 207.009 1156.56 187.489 1124.41 174.172C1092.26 160.854 1057.8 154 1023 154C988.2 154 953.74 160.854 921.589 174.172C889.438 187.489 860.224 207.009 835.617 231.617C811.009 256.224 791.489 285.438 778.172 317.589C765.493 348.2 758.672 380.903 758.047 414C757.995 416.761 760.239 419 763 419L1023 419H1283Z" fill="#FF416F"/>
</g>
</svg>
