<svg width="1440" height="698" viewBox="0 0 1440 698" fill="none" xmlns="http://www.w3.org/2000/svg">
<mask id="mask0_166_2" style="mask-type:alpha" maskUnits="userSpaceOnUse" x="0" y="0" width="1440" height="698">
<rect width="1440" height="698" fill="#29293A"/>
</mask>
<g mask="url(#mask0_166_2)">
<rect width="1440" height="698" fill="#29293A"/>
<rect x="-3.2749" y="611.541" width="12.7097" height="18.2642" fill="white" fill-opacity="0.04"/>
<rect x="14.8401" y="607.122" width="12.7097" height="42.2961" fill="white" fill-opacity="0.04"/>
<rect width="12.7097" height="166.301" transform="matrix(1 0 0 -1 31.957 671.803)" fill="white" fill-opacity="0.04"/>
<rect width="12.7097" height="114.392" transform="matrix(1 0 0 -1 87.3 527.192)" fill="white" fill-opacity="0.04"/>
<rect width="12.7097" height="53.8314" transform="matrix(1 0 0 -1 105.415 454.754)" fill="white" fill-opacity="0.04"/>
<rect width="12.7097" height="17.303" transform="matrix(1 0 0 -1 123.53 460.179)" fill="white" fill-opacity="0.04"/>
<rect width="12.7097" height="2.88383" transform="matrix(1 0 0 -1 1394.59 412.878)" fill="white" fill-opacity="0.04"/>
<rect width="12.7097" height="17.303" transform="matrix(1 0 0 -1 996.066 375.233)" fill="white" fill-opacity="0.04"/>
<rect width="12.7097" height="7.69021" transform="matrix(1 0 0 -1 1177.22 359.311)" fill="white" fill-opacity="0.04"/>
<rect width="12.7097" height="17.303" transform="matrix(1 0 0 -1 141.645 480.521)" fill="white" fill-opacity="0.04"/>
<rect width="12.7097" height="4.80638" transform="matrix(1 0 0 -1 1412.71 417.132)" fill="white" fill-opacity="0.04"/>
<rect width="12.7097" height="19.2255" transform="matrix(1 0 0 -1 1430.82 434.7)" fill="white" fill-opacity="0.04"/>
<rect width="12.7097" height="17.303" transform="matrix(1 0 0 -1 1014.18 395.575)" fill="white" fill-opacity="0.04"/>
<rect x="1195.33" y="356.825" width="12.7097" height="9.61276" fill="white" fill-opacity="0.04"/>
<rect width="12.7097" height="17.303" transform="matrix(1 0 0 -1 159.76 492.023)" fill="white" fill-opacity="0.04"/>
<rect width="12.7097" height="17.303" transform="matrix(1 0 0 -1 1032.3 407.077)" fill="white" fill-opacity="0.04"/>
<rect x="1213.44" y="364.781" width="12.7097" height="17.303" fill="white" fill-opacity="0.04"/>
<rect width="12.7097" height="57.6766" transform="matrix(1 0 0 -1 177.875 533.954)" fill="white" fill-opacity="0.04"/>
<rect width="12.7097" height="57.6766" transform="matrix(1 0 0 -1 1050.41 449.008)" fill="white" fill-opacity="0.04"/>
<rect width="12.7097" height="17.303" transform="matrix(1 0 0 -1 194.48 534.684)" fill="white" fill-opacity="0.04"/>
<rect width="12.7097" height="87.4761" transform="matrix(1 0 0 -1 212.595 560.649)" fill="white" fill-opacity="0.04"/>
<rect width="12.7097" height="87.4761" transform="matrix(1 0 0 -1 1068.53 463.372)" fill="white" fill-opacity="0.04"/>
<rect width="12.7097" height="26.9157" transform="matrix(1 0 0 -1 268.449 560.958)" fill="white" fill-opacity="0.04"/>
<rect width="12.7097" height="55.754" transform="matrix(1 0 0 -1 286.564 548.959)" fill="white" fill-opacity="0.04"/>
<rect width="12.7097" height="17.303" transform="matrix(1 0 0 -1 232.22 495.724)" fill="white" fill-opacity="0.04"/>
<rect width="12.7097" height="88.4374" transform="matrix(1 0 0 -1 250.335 574.494)" fill="white" fill-opacity="0.04"/>
<rect width="12.7097" height="88.4374" transform="matrix(1 0 0 -1 307.698 578.604)" fill="white" fill-opacity="0.04"/>
<rect width="12.7097" height="42.2961" transform="matrix(1 0 0 -1 1086.64 415.154)" fill="white" fill-opacity="0.04"/>
<rect width="12.7097" height="88.4374" transform="matrix(1 0 0 -1 325.813 641.628)" fill="white" fill-opacity="0.04"/>
<rect width="12.7097" height="51.9089" transform="matrix(1 0 0 -1 343.928 668.124)" fill="white" fill-opacity="0.04"/>
<rect width="12.7097" height="21.1481" transform="matrix(1 0 0 -1 362.043 657.904)" fill="white" fill-opacity="0.04"/>
<rect width="12.7097" height="21.1481" transform="matrix(1 0 0 -1 724.342 609.95)" fill="white" fill-opacity="0.04"/>
<rect width="12.7097" height="4.80638" transform="matrix(1 0 0 -1 380.158 643.518)" fill="white" fill-opacity="0.04"/>
<rect width="12.7097" height="4.80638" transform="matrix(1 0 0 -1 742.457 595.564)" fill="white" fill-opacity="0.04"/>
<rect width="12.7097" height="25.9545" transform="matrix(1 0 0 -1 398.273 639.407)" fill="white" fill-opacity="0.04"/>
<rect width="12.7097" height="25.9545" transform="matrix(1 0 0 -1 760.572 591.454)" fill="white" fill-opacity="0.04"/>
<rect width="12.7097" height="58.6378" transform="matrix(1 0 0 -1 416.388 635.695)" fill="white" fill-opacity="0.04"/>
<rect width="12.7097" height="58.6378" transform="matrix(1 0 0 -1 778.686 587.741)" fill="white" fill-opacity="0.04"/>
<rect width="12.7097" height="46.1412" transform="matrix(1 0 0 -1 434.503 598.183)" fill="white" fill-opacity="0.04"/>
<rect width="12.7097" height="46.1412" transform="matrix(1 0 0 -1 796.801 550.23)" fill="white" fill-opacity="0.04"/>
<rect width="12.7097" height="104.779" transform="matrix(1 0 0 -1 1322.13 555.997)" fill="white" fill-opacity="0.04"/>
<rect width="12.7097" height="58.6378" transform="matrix(1 0 0 -1 1249.67 366.283)" fill="white" fill-opacity="0.04"/>
<rect width="12.7097" height="10.574" transform="matrix(1 0 0 -1 1267.79 310.264)" fill="white" fill-opacity="0.04"/>
<rect width="12.7097" height="13.4579" transform="matrix(1 0 0 -1 452.618 543.755)" fill="white" fill-opacity="0.04"/>
<rect width="12.7097" height="13.4579" transform="matrix(1 0 0 -1 814.916 495.802)" fill="white" fill-opacity="0.04"/>
<rect width="12.7097" height="13.4579" transform="matrix(1 0 0 -1 1340.25 458.124)" fill="white" fill-opacity="0.04"/>
<rect width="12.7097" height="7.69021" transform="matrix(1 0 0 -1 470.733 533.479)" fill="white" fill-opacity="0.04"/>
<rect width="12.7097" height="7.69021" transform="matrix(1 0 0 -1 833.031 485.526)" fill="white" fill-opacity="0.04"/>
<rect width="12.7097" height="7.69021" transform="matrix(1 0 0 -1 1358.36 447.848)" fill="white" fill-opacity="0.04"/>
<rect width="12.7097" height="39.4123" transform="matrix(1 0 0 -1 488.848 535.457)" fill="white" fill-opacity="0.04"/>
<rect width="12.7097" height="39.4123" transform="matrix(1 0 0 -1 851.146 487.504)" fill="white" fill-opacity="0.04"/>
<rect width="12.7097" height="39.4123" transform="matrix(1 0 0 -1 1376.48 449.826)" fill="white" fill-opacity="0.04"/>
<rect width="12.7097" height="13.4579" transform="matrix(1 0 0 -1 887.376 420.446)" fill="white" fill-opacity="0.04"/>
<rect width="12.7097" height="13.4579" transform="matrix(1 0 0 -1 1104.76 408.801)" fill="white" fill-opacity="0.04"/>
<rect width="12.7097" height="7.69021" transform="matrix(1 0 0 -1 905.491 410.171)" fill="white" fill-opacity="0.04"/>
<rect width="12.7097" height="7.69021" transform="matrix(1 0 0 -1 1122.87 398.525)" fill="white" fill-opacity="0.04"/>
<rect width="12.7097" height="39.4123" transform="matrix(1 0 0 -1 923.607 412.148)" fill="white" fill-opacity="0.04"/>
<rect width="12.7097" height="39.4123" transform="matrix(1 0 0 -1 1140.99 400.503)" fill="white" fill-opacity="0.04"/>
<rect width="12.7097" height="39.4123" transform="matrix(1 0 0 -1 1231.56 390.912)" fill="white" fill-opacity="0.04"/>
<rect width="12.7097" height="13.4579" transform="matrix(1 0 0 -1 941.721 378.658)" fill="white" fill-opacity="0.04"/>
<rect width="12.7097" height="13.4579" transform="matrix(1 0 0 -1 1159.1 367.013)" fill="white" fill-opacity="0.04"/>
<rect width="12.7097" height="7.69021" transform="matrix(1 0 0 -1 959.836 368.383)" fill="white" fill-opacity="0.04"/>
<rect width="12.7097" height="39.4123" transform="matrix(1 0 0 -1 977.951 370.36)" fill="white" fill-opacity="0.04"/>
<rect width="12.7097" height="46.1412" transform="matrix(1 0 0 -1 506.962 522.01)" fill="white" fill-opacity="0.04"/>
<rect width="12.7097" height="46.1412" transform="matrix(1 0 0 -1 869.261 474.057)" fill="white" fill-opacity="0.04"/>
<rect width="12.7097" height="13.4579" transform="matrix(1 0 0 -1 525.077 476.62)" fill="white" fill-opacity="0.04"/>
<rect width="12.7097" height="13.4579" transform="matrix(1 0 0 -1 543.192 485.526)" fill="white" fill-opacity="0.04"/>
<rect width="12.7097" height="31.7221" transform="matrix(1 0 0 -1 561.307 513.381)" fill="white" fill-opacity="0.04"/>
<rect width="12.7097" height="20.1868" transform="matrix(1 0 0 -1 579.422 510.066)" fill="white" fill-opacity="0.04"/>
<rect width="12.7097" height="20.1868" transform="matrix(1 0 0 -1 597.537 495.68)" fill="white" fill-opacity="0.04"/>
<rect width="12.7097" height="52.8702" transform="matrix(1 0 0 -1 688.112 582.482)" fill="white" fill-opacity="0.04"/>
<rect width="12.7097" height="130.734" transform="matrix(1 0 0 -1 1304.02 566.494)" fill="white" fill-opacity="0.04"/>
<rect width="12.7097" height="52.8702" transform="matrix(1 0 0 -1 706.227 618.79)" fill="white" fill-opacity="0.04"/>
<rect width="12.7097" height="7.69021" transform="matrix(1 0 0 -1 615.652 477.018)" fill="white" fill-opacity="0.04"/>
<rect width="12.7097" height="20.1868" transform="matrix(1 0 0 -1 633.767 484.819)" fill="white" fill-opacity="0.04"/>
<rect width="12.7097" height="61.5217" transform="matrix(1 0 0 -1 51.0701 562.24)" fill="white" fill-opacity="0.04"/>
<rect width="12.7097" height="16.3417" transform="matrix(1 0 0 -1 69.1852 504.033)" fill="white" fill-opacity="0.04"/>
<rect width="12.7097" height="1.92255" transform="matrix(1 0 0 -1 651.882 485.636)" fill="white" fill-opacity="0.04"/>
<rect width="12.7097" height="63.4442" transform="matrix(1 0 0 -1 669.997 524.916)" fill="white" fill-opacity="0.04"/>
<rect width="12.7097" height="126.888" transform="matrix(1 0 0 -1 1285.98 431.484)" fill="white" fill-opacity="0.04"/>
<ellipse cx="398" cy="176.294" rx="18" ry="18.4493" fill="#2E2E41" fill-opacity="0.42"/>
<ellipse cx="690" cy="122.5" rx="65" ry="66.5" fill="#2C2C3E"/>
<ellipse cx="1057" cy="559.63" rx="18" ry="18.4493" fill="#2E2E41" fill-opacity="0.42"/>
<rect width="46.5777" height="46.5777" transform="matrix(0.698337 0.715769 -0.698337 0.715769 1009 77.3572)" fill="#2E2E41" fill-opacity="0.42"/>
</g>
</svg>
