<svg width="92" height="42" viewBox="0 0 92 42" fill="none" xmlns="http://www.w3.org/2000/svg">
<rect x="41.9465" width="41.9465" height="41.9465" rx="9" transform="rotate(90 41.9465 0)" fill="url(#paint0_linear_9_724)"/>
<path d="M23.5728 23.4748L24.3995 23.999L23.8754 22.9939L23.5728 23.4748Z" fill="#EFEFEF"/>
<path d="M25.7181 14.4669H29.2521L25.6532 20.1732L27.2527 23.718L33.9371 13.116C34.4558 12.2946 33.8668 11.2247 32.8942 11.2247H24.1618L22.5353 13.2565L24.0321 16.5743L25.7181 14.4669Z" fill="#EFEFEF"/>
<path d="M25.2641 25.6579L24.3995 23.999L23.5728 23.4749L23.8754 22.9939L20.7034 16.9202H12.0629L10.6633 14.4669H19.4281L17.7314 11.2247H6.87534C6.07559 11.2247 5.57305 12.0893 5.97292 12.7809L10.1824 20.1624H11.5766H13.9488H14.2406H17.8719H18.7419L21.7895 25.993L20.5521 30.1754L15.8239 22.6697L11.9332 22.5778L20.8655 36.7625C21.1627 37.2327 21.8706 37.1354 22.0273 36.6004L25.2641 25.6579Z" fill="#EFEFEF"/>
<path d="M15.813 22.6588L11.9224 22.567L11.9278 22.5778L15.8184 22.6696L15.813 22.6588Z" fill="#EFEFEF"/>
<path d="M53.9237 29.2318C53.4828 29.2318 53.1232 29.139 52.8447 28.9534C52.5779 28.7678 52.3517 28.4719 52.166 28.0659L47.9546 18.773C47.769 18.3669 47.711 18.0014 47.7806 17.6766C47.8502 17.3518 48.0126 17.1023 48.2679 16.9283C48.5231 16.7427 48.8422 16.6499 49.225 16.6499C49.6891 16.6499 50.0429 16.7543 50.2866 16.9631C50.5302 17.1719 50.739 17.4794 50.9131 17.8854L53.9759 24.9856L57.0387 17.868C57.2128 17.462 57.4216 17.1603 57.6652 16.9631C57.9088 16.7543 58.2511 16.6499 58.692 16.6499C59.0516 16.6499 59.3533 16.7427 59.5969 16.9283C59.8405 17.1139 59.9913 17.3692 60.0494 17.694C60.119 18.0072 60.061 18.3669 59.8753 18.773L55.6465 28.0659C55.4725 28.4719 55.2463 28.7678 54.9678 28.9534C54.701 29.139 54.3529 29.2318 53.9237 29.2318Z" fill="#EFEFEF"/>
<path d="M63.0806 29.2318C62.5702 29.2318 62.1757 29.0926 61.8973 28.8142C61.6188 28.5357 61.4796 28.1297 61.4796 27.596V18.2857C61.4796 17.752 61.6188 17.346 61.8973 17.0675C62.1757 16.7891 62.5702 16.6499 63.0806 16.6499C63.5911 16.6499 63.9856 16.7891 64.264 17.0675C64.5425 17.346 64.6817 17.752 64.6817 18.2857V27.596C64.6817 28.1297 64.5425 28.5357 64.264 28.8142C63.9972 29.0926 63.6027 29.2318 63.0806 29.2318Z" fill="#EFEFEF"/>
<path d="M72.2609 29.2318C71.82 29.2318 71.4603 29.139 71.1819 28.9534C70.9151 28.7678 70.6888 28.4719 70.5032 28.0659L66.2918 18.773C66.1062 18.3669 66.0482 18.0014 66.1178 17.6766C66.1874 17.3518 66.3498 17.1023 66.6051 16.9283C66.8603 16.7427 67.1793 16.6499 67.5622 16.6499C68.0263 16.6499 68.3801 16.7543 68.6237 16.9631C68.8674 17.1719 69.0762 17.4794 69.2502 17.8854L72.3131 24.9856L75.3759 17.868C75.5499 17.462 75.7588 17.1603 76.0024 16.9631C76.246 16.7543 76.5883 16.6499 77.0291 16.6499C77.3888 16.6499 77.6904 16.7427 77.9341 16.9283C78.1777 17.1139 78.3285 17.3692 78.3865 17.694C78.4561 18.0072 78.3981 18.3669 78.2125 18.773L73.9837 28.0659C73.8097 28.4719 73.5834 28.7678 73.305 28.9534C73.0382 29.139 72.6901 29.2318 72.2609 29.2318Z" fill="#EFEFEF"/>
<path d="M85.4107 29.2666C84.1694 29.2666 83.0788 29.0056 82.1391 28.4835C81.2109 27.9499 80.4858 27.2074 79.9638 26.256C79.4417 25.3047 79.1806 24.1967 79.1806 22.9321C79.1806 21.656 79.4359 20.548 79.9464 19.6083C80.4684 18.6569 81.1993 17.9202 82.1391 17.3982C83.0788 16.8761 84.1694 16.6151 85.4107 16.6151C86.6521 16.6151 87.7369 16.8761 88.665 17.3982C89.6047 17.9202 90.3356 18.6569 90.8577 19.6083C91.3798 20.548 91.6408 21.656 91.6408 22.9321C91.6408 24.1967 91.3798 25.3047 90.8577 26.256C90.3356 27.2074 89.6047 27.9499 88.665 28.4835C87.7369 29.0056 86.6521 29.2666 85.4107 29.2666ZM85.4107 26.5867C86.3157 26.5867 87.0234 26.2676 87.5338 25.6295C88.0559 24.9798 88.3169 24.0807 88.3169 22.9321C88.3169 21.7836 88.0617 20.8903 87.5512 20.2522C87.0408 19.6141 86.3273 19.295 85.4107 19.295C84.4942 19.295 83.7807 19.6141 83.2702 20.2522C82.7598 20.8903 82.5045 21.7836 82.5045 22.9321C82.5045 24.0807 82.7598 24.9798 83.2702 25.6295C83.7807 26.2676 84.4942 26.5867 85.4107 26.5867Z" fill="#EFEFEF"/>
<circle cx="63.1122" cy="13.413" r="1.74025" fill="url(#paint1_linear_9_724)"/>
<defs>
<linearGradient id="paint0_linear_9_724" x1="62.9198" y1="0" x2="62.9198" y2="41.9465" gradientUnits="userSpaceOnUse">
<stop stop-color="#FF7D9C"/>
<stop offset="1" stop-color="#E82957"/>
</linearGradient>
<linearGradient id="paint1_linear_9_724" x1="63.1122" y1="11.6727" x2="63.1122" y2="15.1532" gradientUnits="userSpaceOnUse">
<stop stop-color="#FF7D9C"/>
<stop offset="1" stop-color="#E82957"/>
</linearGradient>
</defs>
</svg>
